HIERARCHY
ROOT Hips
{
    OFFSET 0.000 95.729 0.000
    CHANNELS 6 Xposition Yposition Zposition Yrotation Xrotation Zrotation
    JOINT RightUpLeg
    {
        OFFSET -9.625 -1.639 0.000
        CHANNELS 3 Yrotation Xrotation Zrotation
        JOINT RightLeg
        {
            OFFSET 0.000 -41.481 0.000
            CHANNELS 3 Yrotation Xrotation Zrotation
            JOINT RightFoot
            {
                OFFSET 0.000 -43.120 0.000
                CHANNELS 3 Yrotation Xrotation Zrotation
                End Site
                {
                    OFFSET 0.000 -7.850 17.850
                }
            }
        }
    }
    JOINT LeftUpLeg
    {
        OFFSET 9.625 -1.639 0.000
        CHANNELS 3 Yrotation Xrotation Zrotation
        JOINT LeftLeg
        {
            OFFSET 0.000 -43.120 0.000
            CHANNELS 3 Yrotation Xrotation Zrotation
            JOINT LeftFoot
            {
                OFFSET 0.000 -43.120 0.000
                CHANNELS 3 Yrotation Xrotation Zrotation
                End Site
                {
                    OFFSET 0.000 -7.850 17.850
                }
            }
        }
    }
    JOINT Spine
    {
        OFFSET 0.000 16.395 0.000
        CHANNELS 3 Yrotation Xrotation Zrotation
        JOINT Spine1
        {
            OFFSET 0.000 10.023 0.000
            CHANNELS 3 Yrotation Xrotation Zrotation
            JOINT Spine2
            {
                OFFSET 0.000 10.437 0.000
                CHANNELS 3 Yrotation Xrotation Zrotation
                JOINT Spine3
                {
                    OFFSET 0.000 10.023 0.000
                    CHANNELS 3 Yrotation Xrotation Zrotation
                    JOINT Neck
                    {
                        OFFSET 0.000 10.713 0.000
                        CHANNELS 3 Yrotation Xrotation Zrotation
                        JOINT Head
                        {
                            OFFSET 0.000 9.720 0.000
                            CHANNELS 3 Yrotation Xrotation Zrotation
                            End Site
                            {
                                OFFSET 0.000 16.450 0.000
                            }
                        }
                    }
                    JOINT RightShoulder
                    {
                        OFFSET -3.275 7.142 0.000
                        CHANNELS 3 Yrotation Xrotation Zrotation
                        JOINT RightArm
                        {
                            OFFSET -13.100 0.000 0.000
                            CHANNELS 3 Yrotation Xrotation Zrotation
                            JOINT RightForeArm
                            {
                                OFFSET -27.250 0.000 0.000
                                CHANNELS 3 Yrotation Xrotation Zrotation
                                JOINT RightHand
                                {
                                    OFFSET -26.750 0.000 0.000
                                    CHANNELS 3 Yrotation Xrotation Zrotation
                                    JOINT RightHandThumb1
                                    {
                                        OFFSET -2.560 0.196 3.210
                                        CHANNELS 3 Yrotation Xrotation Zrotation
                                        JOINT RightHandThumb2
                                        {
                                            OFFSET -3.788 0.000 0.000
                                            CHANNELS 3 Yrotation Xrotation Zrotation
                                            JOINT RightHandThumb3
                                            {
                                                OFFSET -2.631 0.000 0.000
                                                CHANNELS 3 Yrotation Xrotation Zrotation
                                                End Site
                                                {
                                                    OFFSET -2.256 0.000 0.000
                                                }
                                            }
                                        }
                                    }
                                    JOINT RightInHandIndex
                                    {
                                        OFFSET -3.316 0.523 2.035
                                        CHANNELS 3 Yrotation Xrotation Zrotation
                                        JOINT RightHandIndex1
                                        {
                                            OFFSET -5.366 -0.094 1.028
                                            CHANNELS 3 Yrotation Xrotation Zrotation
                                            JOINT RightHandIndex2
                                            {
                                                OFFSET -3.723 0.000 0.000
                                                CHANNELS 3 Yrotation Xrotation Zrotation
                                                JOINT RightHandIndex3
                                                {
                                                    OFFSET -2.111 0.000 0.000
                                                    CHANNELS 3 Yrotation Xrotation Zrotation
                                                    End Site
                                                    {
                                                        OFFSET -1.857 0.000 0.000
                                                    }
                                                }
                                            }
                                        }
                                    }
                                    JOINT RightInHandMiddle
                                    {
                                        OFFSET -3.479 0.532 0.778
                                        CHANNELS 3 Yrotation Xrotation Zrotation
                                        JOINT RightHandMiddle1
                                        {
                                            OFFSET -5.322 -0.086 0.323
                                            CHANNELS 3 Yrotation Xrotation Zrotation
                                            JOINT RightHandMiddle2
                                            {
                                                OFFSET -4.062 0.000 0.000
                                                CHANNELS 3 Yrotation Xrotation Zrotation
                                                JOINT RightHandMiddle3
                                                {
                                                    OFFSET -2.547 0.000 0.000
                                                    CHANNELS 3 Yrotation Xrotation Zrotation
                                                    End Site
                                                    {
                                                        OFFSET -2.031 0.000 0.000
                                                    }
                                                }
                                            }
                                        }
                                    }
                                    JOINT RightInHandRing
                                    {
                                        OFFSET -3.461 0.553 -0.133
                                        CHANNELS 3 Yrotation Xrotation Zrotation
                                        JOINT RightHandRing1
                                        {
                                            OFFSET -4.767 -0.023 -0.493
                                            CHANNELS 3 Yrotation Xrotation Zrotation
                                            JOINT RightHandRing2
                                            {
                                                OFFSET -3.541 0.000 0.000
                                                CHANNELS 3 Yrotation Xrotation Zrotation
                                                JOINT RightHandRing3
                                                {
                                                    OFFSET -2.456 0.000 0.000
                                                    CHANNELS 3 Yrotation Xrotation Zrotation
                                                    End Site
                                                    {
                                                        OFFSET -1.910 0.000 0.000
                                                    }
                                                }
                                            }
                                        }
                                    }
                                    JOINT RightInHandPinky
                                    {
                                        OFFSET -3.251 0.483 -1.236
                                        CHANNELS 3 Yrotation Xrotation Zrotation
                                        JOINT RightHandPinky1
                                        {
                                            OFFSET -4.259 -0.023 -1.122
                                            CHANNELS 3 Yrotation Xrotation Zrotation
                                            JOINT RightHandPinky2
                                            {
                                                OFFSET -2.835 0.000 0.000
                                                CHANNELS 3 Yrotation Xrotation Zrotation
                                                JOINT RightHandPinky3
                                                {
                                                    OFFSET -1.792 0.000 0.000
                                                    CHANNELS 3 Yrotation Xrotation Zrotation
                                                    End Site
                                                    {
                                                        OFFSET -1.692 0.000 0.000
                                                    }
                                                }
                                            }
                                        }
                                    }
                                }
                            }
                        }
                    }
                    JOINT LeftShoulder
                    {
                        OFFSET 3.275 7.142 0.000
                        CHANNELS 3 Yrotation Xrotation Zrotation
                        JOINT LeftArm
                        {
                            OFFSET 13.100 0.000 0.000
                            CHANNELS 3 Yrotation Xrotation Zrotation
                            JOINT LeftForeArm
                            {
                                OFFSET 27.250 0.000 0.000
                                CHANNELS 3 Yrotation Xrotation Zrotation
                                JOINT LeftHand
                                {
                                    OFFSET 26.750 0.000 0.000
                                    CHANNELS 3 Yrotation Xrotation Zrotation
                                    JOINT LeftHandThumb1
                                    {
                                        OFFSET 2.560 0.196 3.210
                                        CHANNELS 3 Yrotation Xrotation Zrotation
                                        JOINT LeftHandThumb2
                                        {
                                            OFFSET 3.788 0.000 0.000
                                            CHANNELS 3 Yrotation Xrotation Zrotation
                                            JOINT LeftHandThumb3
                                            {
                                                OFFSET 2.631 0.000 0.000
                                                CHANNELS 3 Yrotation Xrotation Zrotation
                                                End Site
                                                {
                                                    OFFSET 2.256 0.000 0.000
                                                }
                                            }
                                        }
                                    }
                                    JOINT LeftInHandIndex
                                    {
                                        OFFSET 3.316 0.523 2.035
                                        CHANNELS 3 Yrotation Xrotation Zrotation
                                        JOINT LeftHandIndex1
                                        {
                                            OFFSET 5.366 -0.094 1.028
                                            CHANNELS 3 Yrotation Xrotation Zrotation
                                            JOINT LeftHandIndex2
                                            {
                                                OFFSET 3.723 0.000 0.000
                                                CHANNELS 3 Yrotation Xrotation Zrotation
                                                JOINT LeftHandIndex3
                                                {
                                                    OFFSET 2.111 0.000 0.000
                                                    CHANNELS 3 Yrotation Xrotation Zrotation
                                                    End Site
                                                    {
                                                        OFFSET 1.857 0.000 0.000
                                                    }
                                                }
                                            }
                                        }
                                    }
                                    JOINT LeftInHandMiddle
                                    {
                                        OFFSET 3.479 0.532 0.778
                                        CHANNELS 3 Yrotation Xrotation Zrotation
                                        JOINT LeftHandMiddle1
                                        {
                                            OFFSET 5.322 -0.086 0.323
                                            CHANNELS 3 Yrotation Xrotation Zrotation
                                            JOINT LeftHandMiddle2
                                            {
                                                OFFSET 4.062 0.000 0.000
                                                CHANNELS 3 Yrotation Xrotation Zrotation
                                                JOINT LeftHandMiddle3
                                                {
                                                    OFFSET 2.547 0.000 0.000
                                                    CHANNELS 3 Yrotation Xrotation Zrotation
                                                    End Site
                                                    {
                                                        OFFSET 2.031 0.000 0.000
                                                    }
                                                }
                                            }
                                        }
                                    }
                                    JOINT LeftInHandRing
                                    {
                                        OFFSET 3.461 0.553 -0.133
                                        CHANNELS 3 Yrotation Xrotation Zrotation
                                        JOINT LeftHandRing1
                                        {
                                            OFFSET 4.767 -0.023 -0.493
                                            CHANNELS 3 Yrotation Xrotation Zrotation
                                            JOINT LeftHandRing2
                                            {
                                                OFFSET 3.541 0.000 0.000
                                                CHANNELS 3 Yrotation Xrotation Zrotation
                                                JOINT LeftHandRing3
                                                {
                                                    OFFSET 2.456 0.000 0.000
                                                    CHANNELS 3 Yrotation Xrotation Zrotation
                                                    End Site
                                                    {
                                                        OFFSET 1.910 0.000 0.000
                                                    }
                                                }
                                            }
                                        }
                                    }
                                    JOINT LeftInHandPinky
                                    {
                                        OFFSET 3.251 0.483 -1.236
                                        CHANNELS 3 Yrotation Xrotation Zrotation
                                        JOINT LeftHandPinky1
                                        {
                                            OFFSET 4.259 -0.023 -1.122
                                            CHANNELS 3 Yrotation Xrotation Zrotation
                                            JOINT LeftHandPinky2
                                            {
                                                OFFSET 2.835 0.000 0.000
                                                CHANNELS 3 Yrotation Xrotation Zrotation
                                                JOINT LeftHandPinky3
                                                {
                                                    OFFSET 1.792 0.000 0.000
                                                    CHANNELS 3 Yrotation Xrotation Zrotation
                                                    End Site
                                                    {
                                                        OFFSET 1.692 0.000 0.000
                                                    }
                                                }
                                            }
                                        }
                                    }
                                }
                            }
                        }
                    }
                }
            }
        }
    }
}
MOTION

Frames: 4
Frame Time: 0.008
32.41 94.27 24.67 -131.17 2.79 3.07 13.28 -16.52 -3.01 -0.00 31.74 -0.00 -22.60 -17.70 5.06 9.26 -17.19 7.31 -0.00 18.20 0.00 0.86 -17.17 -4.70 2.08 -2.24 -1.97 0.53 -0.56 -0.48 0.89 -0.93 -0.81 -0.67 -0.04 0.47 -0.68 -0.04 0.47 -12.22 1.10 8.39 18.44 -5.75 -7.90 18.86 -55.18 27.68 48.34 42.82 -9.82 -19.70 20.79 -53.20 21.86 -0.00 30.00 -10.00 -0.00 0.00 -10.00 -0.00 0.00 0.00 -0.00 0.00 2.55 -0.00 20.00 0.00 -0.00 24.00 0.00 -0.00 20.00 0.00 -0.00 0.00 0.00 -0.00 20.00 0.00 -0.00 24.00 0.00 -0.00 20.00 0.00 -0.00 0.00 -3.00 -0.00 20.00 0.00 -0.00 24.00 0.00 -0.00 20.00 0.00 -0.00 0.00 -8.83 -0.00 20.00 0.00 -0.00 24.00 0.00 -0.00 20.00 4.92 -1.17 -4.29 -14.96 2.08 -65.21 -11.32 18.80 -4.57 12.26 30.00 27.10 -21.86 -0.00 -30.00 10.00 -0.00 0.00 10.00 -0.00 0.00 0.00 -0.00 0.00 -2.55 -0.00 -20.00 0.00 -0.00 -24.00 0.00 -0.00 -20.00 0.00 -0.00 0.00 0.00 -0.00 -20.00 0.00 -0.00 -24.00 0.00 -0.00 -20.00 0.00 -0.00 0.00 3.00 -0.00 -20.00 0.00 -0.00 -24.00 0.00 -0.00 -20.00 0.00 -0.00 0.00 8.83 -0.00 -20.00 0.00 -0.00 -24.00 0.00 -0.00 -20.00 
32.43 94.27 24.68 -130.83 2.81 3.11 13.15 -16.55 -3.03 -0.00 31.80 0.00 -22.77 -17.73 5.10 9.23 -17.27 7.24 -0.00 18.15 -0.00 0.77 -17.16 -4.74 2.24 -2.24 -2.05 0.56 -0.56 -0.50 0.95 -0.93 -0.84 -0.69 -0.05 0.47 -0.69 -0.04 0.47 -12.47 1.09 8.45 18.81 -5.61 -8.10 18.77 -55.26 27.54 46.46 43.08 -10.20 -19.56 20.49 -53.49 21.86 -0.00 30.00 -10.00 -0.00 0.00 -10.00 -0.00 0.00 0.00 -0.00 0.00 2.55 -0.00 20.00 0.00 -0.00 24.00 0.00 -0.00 20.00 0.00 -0.00 0.00 0.00 -0.00 20.00 0.00 -0.00 24.00 0.00 -0.00 20.00 0.00 -0.00 0.00 -3.00 -0.00 20.00 0.00 -0.00 24.00 0.00 -0.00 20.00 0.00 -0.00 0.00 -8.83 -0.00 20.00 0.00 -0.00 24.00 0.00 -0.00 20.00 4.35 -1.18 -4.22 -14.49 1.93 -65.20 -11.41 18.84 -4.62 12.41 29.92 27.18 -21.86 -0.00 -30.00 10.00 -0.00 0.00 10.00 -0.00 0.00 0.00 -0.00 0.00 -2.55 -0.00 -20.00 0.00 -0.00 -24.00 0.00 -0.00 -20.00 0.00 -0.00 0.00 0.00 -0.00 -20.00 0.00 -0.00 -24.00 0.00 -0.00 -20.00 0.00 -0.00 0.00 3.00 -0.00 -20.00 0.00 -0.00 -24.00 0.00 -0.00 -20.00 0.00 -0.00 0.00 8.83 -0.00 -20.00 0.00 -0.00 -24.00 0.00 -0.00 -20.00 
32.45 94.25 24.70 -130.50 2.83 3.15 13.01 -16.60 -3.05 0.00 31.90 0.00 -22.93 -17.76 5.14 9.10 -17.41 7.17 0.00 18.19 -0.00 0.58 -17.12 -4.70 2.04 -2.26 -2.07 0.51 -0.57 -0.51 0.87 -0.93 -0.85 -0.67 -0.05 0.47 -0.68 -0.04 0.47 -12.20 1.07 8.44 21.83 -5.16 -8.92 16.16 -55.41 27.96 44.49 43.33 -10.63 -19.40 20.19 -53.78 21.86 -0.00 30.00 -10.00 -0.00 0.00 -10.00 -0.00 0.00 0.00 -0.00 0.00 2.55 -0.00 20.00 0.00 -0.00 24.00 0.00 -0.00 20.00 0.00 -0.00 0.00 0.00 -0.00 20.00 0.00 -0.00 24.00 0.00 -0.00 20.00 0.00 -0.00 0.00 -3.00 -0.00 20.00 0.00 -0.00 24.00 0.00 -0.00 20.00 0.00 -0.00 0.00 -8.83 -0.00 20.00 0.00 -0.00 24.00 0.00 -0.00 20.00 4.95 -1.24 -4.21 -14.63 1.88 -65.23 -11.32 18.79 -4.58 12.37 29.96 27.25 -21.86 -0.00 -30.00 10.00 -0.00 0.00 10.00 -0.00 0.00 0.00 -0.00 0.00 -2.55 -0.00 -20.00 0.00 -0.00 -24.00 0.00 -0.00 -20.00 0.00 -0.00 0.00 0.00 -0.00 -20.00 0.00 -0.00 -24.00 0.00 -0.00 -20.00 0.00 -0.00 0.00 3.00 -0.00 -20.00 0.00 -0.00 -24.00 0.00 -0.00 -20.00 0.00 -0.00 0.00 8.83 -0.00 -20.00 0.00 -0.00 -24.00 0.00 -0.00 -20.00 
32.48 94.24 24.72 -130.17 2.86 3.20 12.86 -16.66 -3.08 0.00 32.01 0.00 -23.09 -17.80 5.18 8.96 -17.55 7.10 -0.00 18.21 -0.00 0.38 -17.07 -4.66 1.84 -2.28 -2.09 0.46 -0.57 -0.51 0.79 -0.94 -0.86 -0.66 -0.05 0.47 -0.66 -0.04 0.47 -11.92 1.05 8.45 22.81 -5.00 -9.18 16.14 -55.47 27.68 42.46 43.56 -11.05 -19.24 19.89 -54.14 21.86 -0.00 30.00 -10.00 -0.00 0.00 -10.00 -0.00 0.00 0.00 -0.00 0.00 2.55 -0.00 20.00 0.00 -0.00 24.00 0.00 -0.00 20.00 0.00 -0.00 0.00 0.00 -0.00 20.00 0.00 -0.00 24.00 0.00 -0.00 20.00 0.00 -0.00 0.00 -3.00 -0.00 20.00 0.00 -0.00 24.00 0.00 -0.00 20.00 0.00 -0.00 0.00 -8.83 -0.00 20.00 0.00 -0.00 24.00 0.00 -0.00 20.00 5.55 -1.27 -4.21 -14.75 1.80 -65.28 -11.36 18.82 -4.61 12.47 29.90 27.33 -21.86 -0.00 -30.00 10.00 -0.00 0.00 10.00 -0.00 0.00 0.00 -0.00 0.00 -2.55 -0.00 -20.00 0.00 -0.00 -24.00 0.00 -0.00 -20.00 0.00 -0.00 0.00 0.00 -0.00 -20.00 0.00 -0.00 -24.00 0.00 -0.00 -20.00 0.00 -0.00 0.00 3.00 -0.00 -20.00 0.00 -0.00 -24.00 0.00 -0.00 -20.00 0.00 -0.00 0.00 8.83 -0.00 -20.00 0.00 -0.00 -24.00 0.00 -0.00 -20.00 
